PathFileType	4	(X/Y/Z)	joints.trc
DataRate	CameraRate	NumFrames	NumMarkers	Units	OrigDataRate	OrigDataStartFrame	OrigNumFrames
30.0	30.0	20	17	m	30.0	1	100
Frame#	Time	smpl_pelvis			l_smpl_hip			r_smpl_hip			smpl_spine			l_smpl_knee			r_smpl_knee			l_smpl_ankle			r_smpl_ankle			l_smpl_mtp			r_smpl_mtp			smpl_head			l_smpl_shoulder			r_smpl_shoulder			l_smpl_elbow			r_smpl_elbow			l_smpl_hand			r_smpl_hand		
		X1	Y1	Z1	X2	Y2	Z2	X3	Y3	Z3	X4	Y4	Z4	X5	Y5	Z5	X6	Y6	Z6	X7	Y7	Z7	X8	Y8	Z8	X9	Y9	Z9	X10	Y10	Z10	X11	Y11	Z11	X12	Y12	Z12	X13	Y13	Z13	X14	Y14	Z14	X15	Y15	Z15	X16	Y16	Z16	X17	Y17	Z17
1	0.000000	-0.027831	-0.217659	0.034127	0.026547	-0.277606	-0.028755	-0.085511	-0.310540	0.006631	-0.041361	-0.095094	0.047302	-0.006718	-0.680221	0.049535	-0.295797	-0.685627	0.023812	-0.190958	-0.889569	-0.306652	-0.437916	-0.892310	-0.342700	-0.194092	-1.037006	-0.303247	-0.518343	-1.015410	-0.300184	-0.042407	0.269290	0.398657	0.104843	0.281919	0.165569	-0.218071	0.158845	0.331756	0.359021	0.384980	0.172969	-0.484564	0.192637	0.332101	0.511689	0.197613	0.295402	-0.522798	0.007826	0.529265
2	0.033333	-0.010842	-0.270745	0.043105	0.032569	-0.361762	0.073847	-0.093744	-0.338196	0.062884	0.020910	-0.185907	-0.048100	0.039713	-0.641926	0.356313	-0.390652	-0.584622	0.127544	-0.052353	-0.961737	0.092494	-0.562477	-0.808066	-0.181978	-0.046835	-1.096691	0.131748	-0.670274	-0.906268	-0.167685	0.153631	0.237541	-0.289949	0.286021	0.007153	-0.196754	-0.057413	0.188866	-0.275921	0.430930	-0.194337	-0.237728	-0.233779	0.253630	-0.460090	0.541208	-0.183766	-0.007485	-0.311182	0.500527	-0.500564
3	0.066667	0.030436	-0.265650	0.040369	0.097080	-0.341620	0.081746	-0.008024	-0.360402	0.018949	0.035848	-0.154629	-0.030511	0.178664	-0.693301	0.208140	-0.031755	-0.714019	-0.084734	0.126036	-0.637429	-0.212521	0.101153	-1.058762	-0.277283	0.177739	-0.672280	-0.341942	-0.040055	-1.064031	-0.246382	0.000906	0.324874	-0.070717	0.115811	0.146148	0.043228	-0.234091	0.190470	-0.121166	0.236987	0.068384	0.250145	-0.494096	0.133651	-0.117551	0.002805	0.181273	0.260697	-0.702166	0.296481	-0.070508
4	0.100000	-0.012238	-0.232147	0.027685	0.009189	-0.330802	0.002089	-0.111304	-0.282018	0.013077	0.047989	-0.123036	-0.003519	-0.096187	-0.699000	-0.049062	-0.439519	-0.491729	0.021407	0.032878	-0.726243	-0.449982	-0.604605	-0.397464	-0.350275	0.020377	-0.863671	-0.459455	-0.741779	-0.451548	-0.351475	0.140745	0.359025	0.055158	0.343836	0.171016	0.005462	-0.042325	0.258500	0.001474	0.574751	0.110345	0.107156	-0.292942	0.208251	0.020945	0.494108	0.167982	0.346457	-0.348254	0.257916	0.270426
5	0.133333	0.021299	-0.208815	0.027628	0.112141	-0.255515	0.004665	-0.001467	-0.291869	-0.040899	-0.010696	-0.084893	0.043255	0.405407	-0.503637	-0.096283	0.057604	-0.608686	-0.243142	0.474196	-0.251500	-0.430140	0.056560	-0.588612	-0.662995	0.585017	-0.281300	-0.510933	0.057785	-0.723428	-0.721875	-0.202888	0.350033	0.172847	0.055131	0.272463	0.189137	-0.292690	0.221700	0.011356	0.282275	0.379202	0.241521	-0.499767	0.132044	-0.115675	0.323029	0.291148	0.477814	-0.681447	0.236527	0.042983
6	0.166667	-0.010046	-0.268076	0.042588	0.038362	-0.355250	0.058394	-0.080228	-0.348124	0.059667	0.003138	-0.170282	-0.039783	-0.059370	-0.672603	0.242186	-0.223299	-0.694076	0.033412	-0.302530	-0.854600	-0.051866	-0.077605	-0.831620	-0.334563	-0.314812	-0.990141	-0.014499	-0.156752	-0.954960	-0.359836	0.002126	0.289879	-0.250645	0.210470	0.085868	-0.243251	-0.153125	0.201469	-0.178113	0.444995	-0.016082	-0.278814	-0.378553	0.349976	-0.187457	0.649156	0.084400	-0.149567	-0.361897	0.618446	-0.173523
7	0.200000	0.001076	-0.272338	0.042998	0.085586	-0.326602	0.037161	-0.020933	-0.377938	0.073956	-0.037372	-0.175604	-0.025567	0.149502	-0.691339	0.037290	-0.045996	-0.696779	0.303183	0.078001	-0.925881	-0.311075	0.089338	-0.838363	-0.061614	0.140712	-1.049267	-0.279861	0.064442	-0.972506	-0.007979	-0.171654	0.297718	-0.023457	0.052993	0.191718	0.049933	-0.258196	0.135871	-0.181501	0.251410	0.170744	0.213449	-0.311711	0.001046	-0.379791	0.053657	0.205833	0.371201	-0.469966	-0.101303	-0.201535
8	0.233333	-0.017035	-0.209007	0.035949	0.005398	-0.293995	-0.017689	-0.111407	-0.261045	0.010693	0.031806	-0.090304	0.038857	-0.082685	-0.679107	0.005937	-0.284940	-0.604058	-0.033444	-0.269274	-0.815815	-0.351425	-0.481462	-0.577340	-0.402780	-0.288281	-0.954379	-0.352154	-0.543486	-0.710051	-0.401214	0.250510	0.312584	0.261226	0.349350	0.138034	0.073372	0.039651	0.259554	0.269068	0.552996	0.020694	-0.046749	-0.157170	0.337439	0.431628	0.777574	-0.113551	-0.060829	-0.068296	0.423892	0.661324
9	0.266667	-0.013165	-0.244323	0.034738	0.027009	-0.336362	0.015822	-0.088906	-0.320014	0.036015	0.007079	-0.125699	-0.011915	0.090345	-0.709239	-0.092647	-0.076745	-0.696356	0.081521	-0.101296	-0.913023	-0.415829	0.005422	-0.905691	-0.270070	-0.028168	-1.032374	-0.442264	0.003639	-1.035411	-0.204726	0.075412	0.357264	0.072862	0.240609	0.144467	-0.015016	-0.113816	0.302298	0.050191	0.474322	0.120960	-0.111097	-0.315903	0.409736	0.192880	0.690493	0.004837	-0.029193	-0.117609	0.443073	0.363732
10	0.300000	-0.011301	-0.235337	0.033137	0.068472	-0.284127	-0.013012	-0.039094	-0.337938	0.003849	-0.058902	-0.118548	0.035048	0.289910	-0.607758	0.040576	0.235713	-0.604417	-0.028839	0.317570	-0.621631	-0.379428	0.274010	-0.705010	-0.435999	0.421662	-0.713878	-0.372168	0.354377	-0.825995	-0.420744	-0.237666	0.317534	0.215031	0.017977	0.280598	0.089226	-0.328622	0.146353	0.237839	0.174459	0.414693	-0.055079	-0.569911	0.080269	0.295612	0.319528	0.372306	0.153539	-0.546137	0.294396	0.441403
11	0.333333	0.028464	-0.260072	0.035272	0.117528	-0.307878	0.052305	0.016416	-0.369313	0.024156	-0.010993	-0.146776	-0.028796	0.326791	-0.619573	0.115062	0.108275	-0.726984	-0.035612	0.200946	-0.652991	-0.287225	0.271065	-0.927850	-0.369127	0.295214	-0.752593	-0.314019	0.261818	-1.075148	-0.361304	-0.286590	0.270848	0.040217	-0.039614	0.301287	-0.016893	-0.333022	0.034027	-0.036837	0.103795	0.485407	-0.111919	-0.473732	-0.181694	-0.028466	0.153609	0.533576	0.134710	-0.488056	-0.257860	0.216599
12	0.366667	0.024278	-0.263061	0.039496	0.103293	-0.320771	0.066323	-0.014684	-0.366201	0.042381	0.024820	-0.165909	-0.037581	0.181369	-0.661358	0.249945	0.081941	-0.709611	0.179246	0.104428	-0.512564	-0.129706	-0.021409	-0.654921	-0.211829	0.105920	-0.633243	-0.208924	0.034367	-0.784111	-0.217227	0.027560	-0.069770	-0.504046	0.168665	-0.256861	-0.417904	-0.121511	-0.022825	-0.339200	0.389462	-0.392506	-0.438155	-0.339329	-0.007441	-0.195375	0.357207	-0.139935	-0.420243	-0.503438	0.011825	-0.404863
13	0.400000	0.004444	-0.224484	0.028584	0.046517	-0.309950	-0.011815	-0.076184	-0.289667	-0.010964	0.042439	-0.097782	0.029460	0.103370	-0.638800	-0.204685	-0.152370	-0.669431	0.028292	0.075404	-0.320092	-0.475934	-0.051209	-0.876274	-0.320746	0.134411	-0.389414	-0.581426	-0.074430	-1.017632	-0.299434	0.113976	0.364607	0.237705	0.287688	0.162343	0.180843	-0.071874	0.309657	0.092525	0.527712	0.077891	0.235609	-0.313361	0.374486	0.017576	0.453053	-0.105022	0.399877	-0.485753	0.291505	0.195782
14	0.433333	-0.022931	-0.256660	0.034221	0.040431	-0.330375	0.006323	-0.072331	-0.355357	0.045485	-0.043201	-0.141783	-0.017680	-0.016849	-0.689226	-0.056387	-0.091668	-0.691480	-0.096068	-0.108162	-0.312231	-0.211448	-0.317699	-0.376906	-0.254529	-0.174007	-0.353544	-0.333039	-0.379863	-0.505880	-0.278875	0.019354	0.227061	-0.358155	0.224985	0.040361	-0.282514	-0.130632	0.189731	-0.202721	0.426348	-0.114418	-0.341943	-0.352020	0.166547	-0.087782	0.651688	-0.236655	-0.410631	-0.513105	0.283796	0.094346
15	0.466667	0.025562	-0.257373	0.034512	0.112269	-0.317964	0.048214	-0.008248	-0.365223	0.025152	0.011159	-0.142770	-0.021801	0.390208	-0.579581	0.175674	-0.143408	-0.720045	0.140143	0.670978	-0.780305	-0.067223	0.012975	-0.874626	-0.216689	0.738485	-0.838274	0.041405	-0.037595	-1.012085	-0.220780	-0.155797	0.246101	-0.286187	0.050889	0.250929	-0.114083	-0.211011	0.030009	-0.295374	0.169048	0.374487	0.090464	-0.367354	-0.155702	-0.388137	0.086698	0.516097	0.295760	-0.500198	0.039688	-0.503022
16	0.500000	-0.033500	-0.261105	0.051045	0.011281	-0.355065	0.041580	-0.100297	-0.333376	0.096404	-0.042141	-0.161256	-0.032389	0.168261	-0.703236	0.165955	-0.086965	-0.623739	0.351385	0.194703	-1.127481	0.242002	-0.160946	-0.705164	-0.052369	0.321323	-1.187047	0.231399	-0.209332	-0.830626	-0.113922	0.131102	0.173255	-0.340300	0.218743	0.056905	-0.150767	-0.071066	0.062840	-0.399654	0.372614	0.068879	0.056850	-0.306010	0.120200	-0.514355	0.535852	0.106778	0.261668	-0.325123	0.210030	-0.765346
17	0.533333	-0.036449	-0.238291	0.044380	0.004640	-0.320951	-0.007039	-0.096513	-0.327633	0.047649	-0.048417	-0.103081	0.031462	-0.037899	-0.681458	-0.108359	0.016736	-0.667852	-0.046959	-0.244409	-0.334400	-0.234137	0.112656	-1.002602	-0.288888	-0.339136	-0.417291	-0.277275	0.126973	-1.062991	-0.157534	0.268118	0.160572	0.281034	0.229954	-0.001977	0.131541	0.019869	0.188896	0.417257	0.338935	-0.189966	-0.008734	-0.072814	0.240934	0.659568	0.467577	-0.404473	-0.095678	-0.186138	0.217840	0.894823
18	0.566667	0.027391	-0.255617	0.036724	0.082249	-0.337460	0.059398	-0.037272	-0.347773	0.020000	0.065961	-0.153887	-0.014769	0.023179	-0.695695	-0.045293	-0.145009	-0.642914	0.265123	0.254215	-0.505081	-0.347259	-0.136962	-0.797258	-0.127185	0.325584	-0.560963	-0.458071	-0.182333	-0.930497	-0.181508	0.235317	0.263276	-0.225412	0.358037	0.065758	-0.151037	0.017666	0.204410	-0.247886	0.625996	0.102411	-0.136261	-0.143491	0.364183	-0.400424	0.724857	0.332845	-0.047563	-0.019971	0.598919	-0.359739
19	0.600000	-0.027706	-0.219662	0.039595	0.029524	-0.276825	-0.027080	-0.085211	-0.308726	0.009828	-0.044774	-0.095199	0.060059	0.217961	-0.598799	-0.178162	-0.146364	-0.670780	-0.111842	-0.016402	-0.446948	-0.501206	-0.151753	-0.490183	-0.486301	0.037177	-0.472012	-0.629121	-0.193769	-0.618978	-0.545179	0.168196	0.170650	0.378489	0.241378	0.109844	0.158894	-0.060748	0.219008	0.379129	0.477796	0.015251	0.103417	-0.248617	0.326478	0.519898	0.604716	-0.175972	0.237334	-0.349003	0.291914	0.761302
20	0.633333	-0.008606	-0.246271	0.029765	0.071254	-0.305134	-0.000008	-0.043824	-0.348781	0.017742	-0.047106	-0.127613	-0.001325	0.290803	-0.629895	0.000576	0.061997	-0.689385	-0.086356	0.381532	-0.767974	-0.389663	-0.026990	-0.728906	-0.491931	0.487443	-0.859101	-0.379230	-0.003246	-0.874257	-0.494623	-0.089732	0.360249	-0.066436	0.123309	0.202591	-0.039362	-0.261434	0.216750	-0.127301	0.351165	0.159078	0.084933	-0.525387	0.212599	-0.148397	0.359629	0.196171	0.343355	-0.604200	0.414270	0.000645
